<?xml version="1.0" encoding="iso-8859-1"?>
<!-- Uploaded to: SVG Repo, www.svgrepo.com, Generator: SVG Repo Mixer Tools -->
<svg height="800px" width="800px" version="1.1" id="Layer_1" xmlns="http://www.w3.org/2000/svg" xmlns:xlink="http://www.w3.org/1999/xlink" 
	 viewBox="0 0 512 512" xml:space="preserve">
<g>
	<path style="fill:#C2FB3B;" d="M144.855,44.473c5.852,0,11.587-2.386,15.721-6.519c4.134-4.136,6.507-9.854,6.507-15.709
		s-2.372-11.588-6.507-15.724c-4.134-4.133-9.869-6.505-15.721-6.505c-5.853,0-11.575,2.372-15.709,6.505
		c-4.134,4.136-6.519,9.869-6.519,15.723s2.384,11.573,6.519,15.709C133.28,42.085,139.001,44.473,144.855,44.473z"/>
	<path style="fill:#C2FB3B;" d="M271.717,37.952c4.134-4.136,6.507-9.869,6.507-15.709c0-5.853-2.372-11.573-6.507-15.723
		C267.582,2.387,261.847,0,255.996,0c-5.853,0-11.575,2.387-15.709,6.52c-4.149,4.136-6.519,9.869-6.519,15.723
		s2.371,11.573,6.519,15.709c4.134,4.148,9.854,6.519,15.709,6.519C261.847,44.473,267.582,42.1,271.717,37.952z"/>
	<path style="fill:#C2FB3B;" d="M382.857,37.952c4.134-4.136,6.507-9.869,6.507-15.709c0-5.853-2.372-11.587-6.507-15.723
		C378.723,2.387,372.988,0,367.136,0c-5.853,0-11.575,2.387-15.709,6.52c-4.149,4.136-6.519,9.854-6.519,15.723
		c0,5.84,2.371,11.573,6.519,15.709c4.134,4.133,9.854,6.519,15.709,6.519C372.988,44.473,378.723,42.085,382.857,37.952z"/>
</g>
<path style="fill:#9CDD05;" d="M150.948,385.852c13.112-16.99,29.35-31.442,47.85-42.491c7.688-4.594,15.766-8.601,24.171-11.953
	c8.253-3.294,16.827-5.954,25.651-7.931c-21.124-19.479-48.814-30.424-77.924-30.424c-63.426,0-115.026,51.599-115.026,115.028
	c0,12.274,9.952,22.228,22.228,22.228h48.311c2.872-7.688,6.277-15.111,10.182-22.228
	C140.672,400.28,145.547,392.851,150.948,385.852z"/>
<g>
	<path style="fill:#EFC27B;" d="M170.696,248.597c14.733,0,28.36-4.813,39.409-12.935c-4.336-6.098-7.952-12.734-10.73-19.79
		c-4.148-10.529-6.451-21.976-6.451-33.959c0-11.982,2.303-23.433,6.451-33.959c2.779-7.06,6.394-13.695,10.73-19.79
		c-11.049-8.124-24.675-12.935-39.409-12.935c-36.77,0-66.684,29.915-66.684,66.684C104.011,218.68,133.926,248.597,170.696,248.597
		z"/>
	<path style="fill:#EFC27B;" d="M192.924,181.912c0,11.982,2.303,23.43,6.451,33.959c2.779,7.058,6.394,13.693,10.73,19.79
		c16.868,23.719,44.551,39.239,75.808,39.239c51.274,0,92.988-41.715,92.988-92.988c0-51.276-41.713-92.988-92.988-92.988
		c-31.257,0-58.94,15.518-75.808,39.237c-4.336,6.095-7.952,12.732-10.73,19.79C195.227,158.479,192.924,169.93,192.924,181.912z"/>
</g>
<path style="fill:#A4E276;" d="M285.913,319.356c-12.808,0-25.285,1.43-37.293,4.121c-8.825,1.977-17.397,4.637-25.651,7.931
	c-8.407,3.353-16.483,7.36-24.171,11.953c-18.5,11.049-34.738,25.502-47.85,42.491c-5.403,7-10.278,14.428-14.556,22.228
	c-3.905,7.117-7.312,14.542-10.182,22.228c-6.92,18.522-10.711,38.557-10.711,59.463c0,12.274,9.952,22.228,22.228,22.228h296.375
	c12.276,0,22.228-9.954,22.228-22.228C456.329,395.803,379.882,319.356,285.913,319.356z"/>
<path style="fill:#ECB45C;" d="M210.105,128.162c-4.336,6.095-7.952,12.732-10.73,19.79c-4.148,10.527-6.451,21.976-6.451,33.959
	s2.303,23.43,6.451,33.959c2.779,7.058,6.394,13.693,10.73,19.79c16.868,23.719,44.551,39.239,75.808,39.239V88.923
	C254.657,88.924,226.973,104.441,210.105,128.162z"/>
<path style="fill:#64C37D;" d="M248.62,323.477c-8.825,1.977-17.397,4.637-25.651,7.931c-8.407,3.353-16.483,7.36-24.172,11.953
	c-18.5,11.049-34.738,25.502-47.85,42.491c-5.403,7-10.278,14.428-14.556,22.228c-3.905,7.117-7.312,14.542-10.182,22.228
	c-6.92,18.522-10.712,38.557-10.712,59.463c0,12.274,9.952,22.228,22.228,22.228h148.188V319.356
	C273.107,319.356,260.629,320.786,248.62,323.477z"/>
<path style="fill:#ECB45C;" d="M104.011,181.912c0,36.77,29.915,66.684,66.684,66.684V115.228
	C133.926,115.228,104.011,145.141,104.011,181.912z"/>
</svg>