<?xml version="1.0" encoding="iso-8859-1"?>
<!-- Uploaded to: SVG Repo, www.svgrepo.com, Generator: SVG Repo Mixer Tools -->
<svg height="800px" width="800px" version="1.1" id="Layer_1" xmlns="http://www.w3.org/2000/svg" xmlns:xlink="http://www.w3.org/1999/xlink" 
	 viewBox="0 0 392.533 392.533" xml:space="preserve">
<path style="fill:#194F82;" d="M36.525,202.925c6.271,0.711,11.442-4.331,12.024-9.632c2.715-25.018,11.83-49.002,26.376-69.366
	c3.491-4.848,2.392-11.766-2.521-15.192c-4.848-3.491-11.766-2.392-15.192,2.521c-16.743,23.337-27.152,50.877-30.319,79.58
	C26.182,196.784,30.513,202.214,36.525,202.925z"/>
<path style="fill:#FFFFFF;" d="M196.267,21.786c-38.853,0-70.529,31.677-70.529,70.529c0,13.123,3.685,25.471,10.02,36.008
	c16.679-14.545,38.077-22.82,60.574-22.82s43.83,8.275,60.574,22.82c6.335-10.602,10.02-22.885,10.02-36.073
	C266.796,53.463,235.184,21.786,196.267,21.786z"/>
<path style="fill:#56ACE0;" d="M149.592,145.196c12.412,11.055,28.768,17.778,46.675,17.778s34.263-6.723,46.675-17.778
	c-12.8-11.378-29.285-17.778-46.675-17.778C178.941,127.418,162.392,133.818,149.592,145.196z"/>
<path style="fill:#FFC10D;" d="M196.267,50.618c-7.24,0-13.123,5.883-13.123,13.123s5.883,13.123,13.123,13.123
	c7.24,0,13.123-5.883,13.123-13.123S203.507,50.618,196.267,50.618z"/>
<path style="fill:#194F82;" d="M196.267,28.768c-19.329,0-34.974,15.709-34.974,34.974s15.709,34.974,34.974,34.974
	s34.974-15.709,34.974-34.974S215.596,28.768,196.267,28.768z M196.267,76.865c-7.24,0-13.123-5.883-13.123-13.123
	s5.883-13.123,13.123-13.123c7.24,0,13.123,5.883,13.123,13.123S203.507,76.865,196.267,76.865z"/>
<path style="fill:#FFC10D;" d="M253.543,352.97c12.412,10.99,28.768,17.713,46.61,17.713c17.842,0,34.133-6.723,46.61-17.713
	c-12.8-11.378-29.285-17.778-46.61-17.778S266.343,341.721,253.543,352.97z"/>
<path style="fill:#FFFFFF;" d="M300.218,229.56c-38.917,0-70.529,31.677-70.529,70.529c0,13.188,3.685,25.471,10.02,36.073
	c16.679-14.61,38.012-22.885,60.509-22.885s43.83,8.275,60.509,22.82c6.335-10.602,10.02-22.885,10.02-36.073
	C370.747,261.236,339.071,229.56,300.218,229.56z"/>
<path style="fill:#56ACE0;" d="M300.218,258.392c-7.24,0-13.188,5.883-13.188,13.123s5.947,13.188,13.188,13.188
	s13.123-5.947,13.123-13.188C313.341,264.275,307.459,258.392,300.218,258.392z"/>
<path style="fill:#194F82;" d="M300.218,236.541c-19.329,0-34.974,15.709-34.974,34.974c0,19.329,15.709,34.974,34.974,34.974
	c19.265,0,34.974-15.709,34.974-34.974C335.127,252.315,319.418,236.541,300.218,236.541z M300.218,284.768
	c-7.24,0-13.188-5.947-13.188-13.188s5.947-13.123,13.188-13.123s13.123,5.883,13.123,13.123
	C313.341,278.82,307.459,284.768,300.218,284.768z"/>
<path style="fill:#FFFFFF;" d="M92.315,229.56c-38.917,0-70.529,31.677-70.529,70.529c0,13.123,3.685,25.471,10.02,36.008
	c16.679-14.545,38.077-22.82,60.574-22.82s43.895,8.21,60.574,22.82c6.335-10.602,10.02-22.885,10.02-36.008
	C162.974,261.236,131.297,229.56,92.315,229.56z"/>
<path style="fill:#FFC10D;" d="M45.77,352.97c12.412,11.055,28.768,17.778,46.675,17.778c17.842,0,34.133-6.723,46.675-17.778
	c-12.8-11.378-29.285-17.778-46.675-17.778S58.57,341.592,45.77,352.97z"/>
<path style="fill:#56ACE0;" d="M92.315,258.392c-7.24,0-13.123,5.883-13.123,13.123s5.883,13.188,13.123,13.188
	s13.123-5.947,13.123-13.188C105.503,264.275,99.62,258.392,92.315,258.392z"/>
<g>
	<path style="fill:#194F82;" d="M92.315,236.541c-19.329,0-34.974,15.709-34.974,34.974c0,19.329,15.709,34.974,34.974,34.974
		s34.974-15.709,34.974-34.974C127.354,252.315,111.644,236.541,92.315,236.541z M92.315,284.768
		c-7.24,0-13.123-5.947-13.123-13.188s5.883-13.123,13.123-13.123s13.123,5.883,13.123,13.123
		C105.503,278.82,99.62,284.768,92.315,284.768z"/>
	<path style="fill:#194F82;" d="M341.01,193.228c0.646,5.301,5.689,10.343,12.024,9.632c5.948-0.646,10.279-6.012,9.632-12.024
		c-3.168-28.768-13.576-56.242-30.319-79.644c-3.491-4.848-10.279-6.012-15.192-2.521c-4.848,3.491-6.012,10.279-2.521,15.192
		C329.115,144.162,338.295,168.21,341.01,193.228z"/>
	<path style="fill:#194F82;" d="M196.267,0c-50.941,0-92.315,41.438-92.315,92.315s41.374,92.38,92.315,92.38
		s92.315-41.438,92.315-92.38S247.208,0,196.267,0z M196.267,162.974c-17.907,0-34.263-6.723-46.675-17.778
		c12.8-11.378,29.285-17.778,46.675-17.778c17.325,0,33.875,6.4,46.675,17.778C230.529,156.186,214.174,162.974,196.267,162.974z
		 M196.267,105.632c-22.497,0-43.83,8.275-60.574,22.82c-6.335-10.602-10.02-22.885-10.02-36.008
		c0-38.917,31.677-70.529,70.529-70.529c38.917,0,70.529,31.677,70.529,70.529c0,13.188-3.685,25.471-10.02,36.073
		C240.097,113.907,218.764,105.632,196.267,105.632z"/>
	<path style="fill:#194F82;" d="M300.218,207.774c-50.941,0-92.315,41.438-92.315,92.315s41.309,92.444,92.315,92.444
		c50.941,0,92.315-41.438,92.315-92.315S351.095,207.774,300.218,207.774z M300.218,370.747c-17.842,0-34.133-6.723-46.61-17.713
		c12.8-11.313,29.285-17.778,46.61-17.778c17.325,0,33.745,6.465,46.61,17.778C334.352,364.024,318.061,370.747,300.218,370.747z
		 M300.218,313.406c-22.497,0-43.83,8.275-60.509,22.885c-6.335-10.602-10.02-22.885-10.02-36.073
		c0-38.917,31.677-70.529,70.529-70.529c38.853,0,70.529,31.677,70.529,70.529c0,13.188-3.685,25.471-10.02,36.073
		C343.984,321.681,322.586,313.406,300.218,313.406z"/>
	<path style="fill:#194F82;" d="M92.315,207.774C41.374,207.774,0,249.212,0,300.218s41.438,92.315,92.315,92.315
		s92.315-41.438,92.315-92.315S143.321,207.774,92.315,207.774z M92.315,370.747c-17.907,0-34.263-6.723-46.675-17.778
		c12.8-11.378,29.285-17.778,46.675-17.778c17.325,0,33.875,6.4,46.675,17.778C126.578,364.024,110.287,370.747,92.315,370.747z
		 M92.315,313.406c-22.497,0-43.83,8.275-60.574,22.82c-6.335-10.602-10.02-22.885-10.02-36.008
		c0-38.917,31.677-70.529,70.529-70.529s70.529,31.677,70.529,70.529c0,13.188-3.685,25.471-10.02,36.008
		C136.21,321.681,114.812,313.406,92.315,313.406z"/>
</g>
</svg>