<?xml version="1.0" encoding="iso-8859-1"?>
<!-- Uploaded to: SVG Repo, www.svgrepo.com, Generator: SVG Repo Mixer Tools -->
<svg height="800px" width="800px" version="1.1" id="Layer_1" xmlns="http://www.w3.org/2000/svg" xmlns:xlink="http://www.w3.org/1999/xlink" 
	 viewBox="0 0 512 512" xml:space="preserve">
<path style="fill:#BFA779;" d="M181.73,396.8l-2.517,24.96v0.64c0,42.351,34.449,76.8,76.791,76.8s76.791-34.449,76.791-76.8v-0.64
	l-2.517-24.96H181.73z"/>
<path style="fill:#FEDEA1;" d="M422.379,179.2c0-91.75-74.641-166.4-166.374-166.4S89.63,87.45,89.63,179.2
	c0,76.518,0,122.701-73.037,195.746l-0.06,21.854h479.471l-0.597-21.854C422.379,301.901,422.379,255.718,422.379,179.2z"/>
<path style="fill:#573A32;" d="M435.17,179.2C435.17,80.23,354.957,0,256.004,0S76.838,80.23,76.838,179.2
	c0,51.891-1.382,71.253-8.525,95.044c-8.883,29.628-27.119,57.993-60.766,91.657C-8.572,382.029,2.846,409.6,25.647,409.6H167.71
	l-1.289,12.8c0,49.485,40.107,89.6,89.583,89.6s89.583-40.115,89.583-89.6l-1.297-12.8h142.063
	c22.801,0,34.219-27.571,18.099-43.699C444.233,305.664,435.17,275.447,435.17,179.2z M256.004,486.4
	c-35.337,0-63.991-28.663-63.991-64l1.289-12.8H318.69l1.289,12.8C319.996,457.737,291.341,486.4,256.004,486.4z M25.647,384
	c76.783-76.8,76.783-128,76.783-204.8c0-84.821,68.762-153.6,153.566-153.6s153.566,68.779,153.566,153.6c0,76.8,0,128,76.783,204.8
	H25.647z"/>
</svg>